<?xml version="1.0" encoding="UTF-8" standalone="no"?>
<!DOCTYPE svg PUBLIC "-//W3C//DTD SVG 1.1//EN" "http://www.w3.org/Graphics/SVG/1.1/DTD/svg11.dtd">
<svg width="100%" height="100%" viewBox="0 0 100 100" version="1.1" xmlns="http://www.w3.org/2000/svg" xmlns:xlink="http://www.w3.org/1999/xlink" xml:space="preserve" xmlns:serif="http://www.serif.com/" style="fill-rule:evenodd;clip-rule:evenodd;stroke-linejoin:round;stroke-miterlimit:2;">
    <g transform="matrix(0.666667,0,0,1.03896,15,1.68831)">
        <path d="M15,31.1L-7.5,31.1L-7.5,21.475L15,21.475L15,8L30,8L30,21.475L75,21.475L75,8L90,8L90,21.475L112.5,21.475L112.5,31.1L90,31.1L90,59.975L112.5,59.975L112.5,69.6L90,69.6L90,85L75,85L75,69.6L30,69.6L30,85L15,85L15,69.6L-7.5,69.6L-7.5,59.975L15,59.975L15,31.1ZM75,31.1L30,31.1L30,59.975L75,59.975L75,31.1Z" style="fill:rgb(205,67,70);"/>
    </g>
</svg>
