<?xml version="1.0" encoding="UTF-8" standalone="no"?>
<!DOCTYPE svg PUBLIC "-//W3C//DTD SVG 1.1//EN" "http://www.w3.org/Graphics/SVG/1.1/DTD/svg11.dtd">
<svg width="100%" height="100%" viewBox="0 0 256 256" version="1.1" xmlns="http://www.w3.org/2000/svg" xmlns:xlink="http://www.w3.org/1999/xlink" xml:space="preserve" xmlns:serif="http://www.serif.com/" style="fill-rule:evenodd;clip-rule:evenodd;stroke-linecap:round;stroke-linejoin:round;">
    <g id="Icons" transform="matrix(1.39193,1.39193,-1.39193,1.39193,103.712,-261.727)">
        <g transform="matrix(1,-7.39557e-32,7.39557e-32,1,94.1818,96.9839)">
            <g transform="matrix(1,0,0,1,5,5)">
                <circle cx="9" cy="9" r="7" style="fill:none;stroke:rgb(58,58,58);stroke-width:2px;"/>
            </g>
            <g transform="matrix(1,0,0,1,5,5)">
                <circle cx="15" cy="15" r="7" style="fill:none;stroke:rgb(58,58,58);stroke-width:2px;"/>
            </g>
        </g>
        <g transform="matrix(1,-7.39557e-32,7.39557e-32,1,45.4774,76.1055)">
            <g transform="matrix(1,0,0,1,86.8847,57.9175)">
                <path d="M8,21C8,21 4,18 4,12C4,6 8,3 8,3" style="fill:none;fill-rule:nonzero;stroke:rgb(58,58,58);stroke-width:2px;"/>
            </g>
            <g transform="matrix(1,0,0,1,86.8847,57.9175)">
                <path d="M16,3C16,3 20,6 20,12C20,18 16,21 16,21" style="fill:none;fill-rule:nonzero;stroke:rgb(58,58,58);stroke-width:2px;"/>
            </g>
            <g transform="matrix(1,0,0,1,86.8847,57.9175)">
                <path d="M15,9L9,15" style="fill:none;fill-rule:nonzero;stroke:rgb(58,58,58);stroke-width:2px;"/>
            </g>
            <g transform="matrix(1,0,0,1,86.8847,57.9175)">
                <path d="M9,9L15,15" style="fill:none;fill-rule:nonzero;stroke:rgb(58,58,58);stroke-width:2px;"/>
            </g>
        </g>
        <g transform="matrix(1,-2.46519e-32,2.46519e-32,1,-19.2516,44.0664)">
            <g transform="matrix(1,0,0,1,86.8847,57.9157)">
                <path d="M20,13C20,18 16.5,20.5 12.34,21.95C12.122,22.024 11.885,22.02 11.67,21.94C7.5,20.5 4,18 4,13L4,6C4,5.451 4.451,5 5,5C7,5 9.5,3.8 11.24,2.28C11.676,1.908 12.324,1.908 12.76,2.28C14.51,3.81 17,5 19,5C19.549,5 20,5.451 20,6L20,13Z" style="fill:none;fill-rule:nonzero;stroke:rgb(58,58,58);stroke-width:2px;"/>
            </g>
            <g transform="matrix(1,0,0,1,86.8847,57.9157)">
                <path d="M12,8L12,12" style="fill:none;fill-rule:nonzero;stroke:rgb(58,58,58);stroke-width:2px;"/>
            </g>
            <g transform="matrix(1,0,0,1,86.8847,57.9157)">
                <path d="M12,16L12.01,16" style="fill:none;fill-rule:nonzero;stroke:rgb(58,58,58);stroke-width:2px;"/>
            </g>
        </g>
        <g transform="matrix(1,-4.93038e-32,4.93038e-32,1,44.7063,11.9244)">
            <g transform="matrix(1,0,0,1,86.8847,57.9175)">
                <circle cx="18" cy="18" r="3" style="fill:none;stroke:rgb(58,58,58);stroke-width:2px;"/>
            </g>
            <g transform="matrix(1,0,0,1,86.8847,57.9175)">
                <circle cx="6" cy="6" r="3" style="fill:none;stroke:rgb(58,58,58);stroke-width:2px;"/>
            </g>
            <g transform="matrix(1,0,0,1,86.8847,57.9175)">
                <path d="M13,6L16,6C17.097,6 18,6.903 18,8L18,15" style="fill:none;fill-rule:nonzero;stroke:rgb(58,58,58);stroke-width:2px;"/>
            </g>
            <g transform="matrix(1,0,0,1,86.8847,57.9175)">
                <path d="M11,18L8,18C6.903,18 6,17.097 6,16L6,9" style="fill:none;fill-rule:nonzero;stroke:rgb(58,58,58);stroke-width:2px;"/>
            </g>
        </g>
        <g transform="matrix(1,-2.46519e-32,2.46519e-32,1,44.1066,-19.1331)">
            <g transform="matrix(1,0,0,1,86.8847,58.9175)">
                <path d="M15,11L19.5,11C20.871,11 22,12.129 22,13.5C22,14.871 20.871,16 19.5,16L15.5,16C15.226,16 15,15.774 15,15.5L15,6.5C15,6.226 15.226,6 15.5,6L18.5,6C19.871,6 21,7.129 21,8.5C21,9.871 19.871,11 18.5,11" style="fill:none;fill-rule:nonzero;stroke:rgb(58,58,58);stroke-width:2px;"/>
            </g>
            <g transform="matrix(1,0,0,1,86.8847,58.9175)">
                <path d="M2,16L6.039,6.31C6.117,6.124 6.299,6.002 6.501,6.002C6.702,6.002 6.884,6.124 6.962,6.31L11,16" style="fill:none;fill-rule:nonzero;stroke:rgb(58,58,58);stroke-width:2px;"/>
            </g>
            <g transform="matrix(1,0,0,1,86.8847,58.9175)">
                <path d="M3.304,13L9.696,13" style="fill:none;fill-rule:nonzero;stroke:rgb(58,58,58);stroke-width:2px;"/>
            </g>
        </g>
        <g transform="matrix(1,-2.46519e-32,2.46519e-32,1,163.53,37.8783)">
            <path d="M22,7.016L22,16.984C22,17.545 21.545,18 20.984,18L3.016,18C2.455,18 2,17.545 2,16.984L2,7.016C2,6.455 2.455,6 3.016,6L20.984,6C21.545,6 22,6.455 22,7.016Z" style="fill:none;stroke:rgb(58,58,58);stroke-width:2px;"/>
        </g>
        <g transform="matrix(1,-2.46519e-32,2.46519e-32,1,-19.6469,75.6018)">
            <g transform="matrix(1,0,0,1,86.8847,57.9175)">
                <path d="M21,4.016L21,19.984C21,20.545 20.545,21 19.984,21L4.016,21C3.455,21 3,20.545 3,19.984L3,4.016C3,3.455 3.455,3 4.016,3L19.984,3C20.545,3 21,3.455 21,4.016Z" style="fill:none;stroke:rgb(58,58,58);stroke-width:2px;"/>
            </g>
            <g transform="matrix(1,0,0,1,86.8847,57.9175)">
                <circle cx="12" cy="12" r="1" style="fill:none;stroke:rgb(58,58,58);stroke-width:2px;"/>
            </g>
        </g>
        <g transform="matrix(1,-2.46519e-32,2.46519e-32,1,76.3134,11.9244)">
            <g transform="matrix(1,0,0,1,86.8847,57.9175)">
                <path d="M12,17L13.5,17" style="fill:none;fill-rule:nonzero;stroke:rgb(58,58,58);stroke-width:2px;"/>
            </g>
            <g transform="matrix(1,0,0,1,86.8847,57.9175)">
                <path d="M12,22L13.5,22" style="fill:none;fill-rule:nonzero;stroke:rgb(58,58,58);stroke-width:2px;"/>
            </g>
            <g transform="matrix(1,0,0,1,86.8847,57.9175)">
                <path d="M12,2L13.5,2" style="fill:none;fill-rule:nonzero;stroke:rgb(58,58,58);stroke-width:2px;"/>
            </g>
            <g transform="matrix(1,0,0,1,86.8847,57.9175)">
                <path d="M17.5,22L19,22C19.549,22 20,21.549 20,21" style="fill:none;fill-rule:nonzero;stroke:rgb(58,58,58);stroke-width:2px;"/>
            </g>
            <g transform="matrix(1,0,0,1,86.8847,57.9175)">
                <path d="M17.5,2L19,2C19.549,2 20,2.451 20,3L20,4.5" style="fill:none;fill-rule:nonzero;stroke:rgb(58,58,58);stroke-width:2px;"/>
            </g>
            <g transform="matrix(1,0,0,1,86.8847,57.9175)">
                <path d="M20,14L20,17L17.5,17" style="fill:none;fill-rule:nonzero;stroke:rgb(58,58,58);stroke-width:2px;"/>
            </g>
            <g transform="matrix(1,0,0,1,86.8847,57.9175)">
                <path d="M20,8.5L20,10" style="fill:none;fill-rule:nonzero;stroke:rgb(58,58,58);stroke-width:2px;"/>
            </g>
            <g transform="matrix(1,0,0,1,86.8847,57.9175)">
                <path d="M4,10L4,8.5" style="fill:none;fill-rule:nonzero;stroke:rgb(58,58,58);stroke-width:2px;"/>
            </g>
            <g transform="matrix(1,0,0,1,86.8847,57.9175)">
                <path d="M4,19.5L4,14" style="fill:none;fill-rule:nonzero;stroke:rgb(58,58,58);stroke-width:2px;"/>
            </g>
            <g transform="matrix(1,0,0,1,86.8847,57.9175)">
                <path d="M4,4.5C4,3.129 5.129,2 6.5,2L8,2" style="fill:none;fill-rule:nonzero;stroke:rgb(58,58,58);stroke-width:2px;"/>
            </g>
            <g transform="matrix(1,0,0,1,86.8847,57.9175)">
                <path d="M8,22L6.5,22C5.129,22 4,20.871 4,19.5C4,18.129 5.129,17 6.5,17L8,17" style="fill:none;fill-rule:nonzero;stroke:rgb(58,58,58);stroke-width:2px;"/>
            </g>
        </g>
        <g transform="matrix(1,-2.46519e-32,2.46519e-32,1,44.8366,43.35)">
            <g transform="matrix(1,0,0,1,86.8847,57.9175)">
                <path d="M12,19L20,19" style="fill:none;fill-rule:nonzero;stroke:rgb(58,58,58);stroke-width:2px;"/>
            </g>
            <g transform="matrix(1,0,0,1,86.8847,57.9175)">
                <path d="M4,17L10,11L4,5" style="fill:none;fill-rule:nonzero;stroke:rgb(58,58,58);stroke-width:2px;"/>
            </g>
        </g>
        <g transform="matrix(1,-2.46519e-32,2.46519e-32,1,98.3028,71.0329)">
            <path d="M22,13.29L18.67,3.29C18.641,3.218 18.592,3.156 18.53,3.11C18.471,3.05 18.393,3.011 18.31,3C18.228,2.999 18.147,3.023 18.08,3.07C18.018,3.116 17.969,3.178 17.94,3.25L15.68,9.92L8.32,9.92L6.1,3.26C6.082,3.193 6.048,3.131 6,3.08C5.926,3.022 5.834,2.994 5.74,3C5.658,2.999 5.577,3.023 5.51,3.07C5.448,3.116 5.399,3.178 5.37,3.25L2,13.29C1.9,13.595 2.01,13.932 2.27,14.12L12,21L21.69,14.12C21.973,13.95 22.103,13.604 22,13.29Z" style="fill:none;fill-rule:nonzero;stroke:rgb(58,58,58);stroke-width:2px;"/>
        </g>
        <g transform="matrix(1,-2.46519e-32,2.46519e-32,1,73.8948,42.8003)">
            <g transform="matrix(1,0,0,1,87.8791,57.9175)">
                <path d="M15,22L15,18C15.139,16.748 14.78,15.49 14,14.5C17,14.5 20,12.5 20,9C20.08,7.75 19.73,6.52 19,5.5C19.28,4.35 19.28,3.15 19,2C19,2 18,2 16,3.5C13.36,3 10.64,3 8,3.5C6,2 5,2 5,2C4.7,3.15 4.7,4.35 5,5.5C4.272,6.516 3.918,7.753 4,9C4,12.5 7,14.5 10,14.5C9.61,14.99 9.32,15.55 9.15,16.15C8.98,16.75 8.93,17.38 9,18L9,22" style="fill:none;fill-rule:nonzero;stroke:rgb(58,58,58);stroke-width:2px;"/>
            </g>
            <g transform="matrix(1,0,0,1,87.8791,57.9175)">
                <path d="M9,18C4.49,20 4,16 2,16" style="fill:none;fill-rule:nonzero;stroke:rgb(58,58,58);stroke-width:2px;"/>
            </g>
        </g>
        <g transform="matrix(1,-4.93038e-32,4.93038e-32,1,99.0337,134.292)">
            <path d="M15,6L15,18C15,19.646 16.354,21 18,21C19.646,21 21,19.646 21,18C21,16.354 19.646,15 18,15L6,15C4.354,15 3,16.354 3,18C3,19.646 4.354,21 6,21C7.646,21 9,19.646 9,18L9,6C9,4.354 7.646,3 6,3C4.354,3 3,4.354 3,6C3,7.646 4.354,9 6,9L18,9C19.646,9 21,7.646 21,6C21,4.354 19.646,3 18,3C16.354,3 15,4.354 15,6" style="fill:none;fill-rule:nonzero;stroke:rgb(58,58,58);stroke-width:2px;"/>
        </g>
        <g transform="matrix(1,-2.46519e-32,2.46519e-32,1,108.348,11.9356)">
            <g transform="matrix(1,0,0,1,86.8847,57.9175)">
                <path d="M22,9.016L22,20.984C22,21.545 21.545,22 20.984,22L9.016,22C8.455,22 8,21.545 8,20.984L8,9.016C8,8.455 8.455,8 9.016,8L20.984,8C21.545,8 22,8.455 22,9.016Z" style="fill:none;stroke:rgb(58,58,58);stroke-width:2px;"/>
            </g>
            <g transform="matrix(1,0,0,1,86.8847,57.9175)">
                <path d="M4,16C2.9,16 2,15.1 2,14L2,4C2,2.9 2.9,2 4,2L14,2C15.1,2 16,2.9 16,4" style="fill:none;fill-rule:nonzero;stroke:rgb(58,58,58);stroke-width:2px;"/>
            </g>
        </g>
        <g transform="matrix(1,-2.46519e-32,2.46519e-32,1,12.2604,108.48)">
            <g transform="matrix(1,0,0,1,86.8847,57.9175)">
                <path d="M10,8L10.01,8" style="fill:none;fill-rule:nonzero;stroke:rgb(58,58,58);stroke-width:2px;"/>
            </g>
            <g transform="matrix(1,0,0,1,86.8847,57.9175)">
                <path d="M12,12L12.01,12" style="fill:none;fill-rule:nonzero;stroke:rgb(58,58,58);stroke-width:2px;"/>
            </g>
            <g transform="matrix(1,0,0,1,86.8847,57.9175)">
                <path d="M14,8L14.01,8" style="fill:none;fill-rule:nonzero;stroke:rgb(58,58,58);stroke-width:2px;"/>
            </g>
            <g transform="matrix(1,0,0,1,86.8847,57.9175)">
                <path d="M16,12L16.01,12" style="fill:none;fill-rule:nonzero;stroke:rgb(58,58,58);stroke-width:2px;"/>
            </g>
            <g transform="matrix(1,0,0,1,86.8847,57.9175)">
                <path d="M18,8L18.01,8" style="fill:none;fill-rule:nonzero;stroke:rgb(58,58,58);stroke-width:2px;"/>
            </g>
            <g transform="matrix(1,0,0,1,86.8847,57.9175)">
                <path d="M6,8L6.01,8" style="fill:none;fill-rule:nonzero;stroke:rgb(58,58,58);stroke-width:2px;"/>
            </g>
            <g transform="matrix(1,0,0,1,86.8847,57.9175)">
                <path d="M7,16L17,16" style="fill:none;fill-rule:nonzero;stroke:rgb(58,58,58);stroke-width:2px;"/>
            </g>
            <g transform="matrix(1,0,0,1,86.8847,57.9175)">
                <path d="M8,12L8.01,12" style="fill:none;fill-rule:nonzero;stroke:rgb(58,58,58);stroke-width:2px;"/>
            </g>
            <g transform="matrix(1,0,0,1,86.8847,57.9175)">
                <path d="M22,5.016L22,18.984C22,19.545 21.545,20 20.984,20L3.016,20C2.455,20 2,19.545 2,18.984L2,5.016C2,4.455 2.455,4 3.016,4L20.984,4C21.545,4 22,4.455 22,5.016Z" style="fill:none;stroke:rgb(58,58,58);stroke-width:2px;"/>
            </g>
        </g>
        <g transform="matrix(1,-2.46519e-32,2.46519e-32,1,108.079,44.4457)">
            <g transform="matrix(1,0,0,1,86.7197,57.9175)">
                <path d="M17,3L17,13" style="fill:none;fill-rule:nonzero;stroke:rgb(58,58,58);stroke-width:2px;"/>
            </g>
            <g transform="matrix(1,0,0,1,86.7197,57.9175)">
                <path d="M12.67,5.5L21.33,10.5" style="fill:none;fill-rule:nonzero;stroke:rgb(58,58,58);stroke-width:2px;"/>
            </g>
            <g transform="matrix(1,0,0,1,86.7197,57.9175)">
                <path d="M12.67,10.5L21.33,5.5" style="fill:none;fill-rule:nonzero;stroke:rgb(58,58,58);stroke-width:2px;"/>
            </g>
            <g transform="matrix(1,0,0,1,86.7197,57.9175)">
                <path d="M9,17C9,15.903 8.097,15 7,15L5,15C3.903,15 3,15.903 3,17L3,19C3,20.097 3.903,21 5,21L7,21C8.097,21 9,20.097 9,19L9,17Z" style="fill:none;fill-rule:nonzero;stroke:rgb(58,58,58);stroke-width:2px;"/>
            </g>
        </g>
        <g transform="matrix(1,-9.86076e-32,9.86076e-32,1,44.3891,109.48)">
            <g transform="matrix(1,0,0,1,86.8847,57.9175)">
                <circle cx="12" cy="12" r="1" style="fill:none;stroke:rgb(58,58,58);stroke-width:2px;"/>
            </g>
            <g transform="matrix(1,0,0,1,86.8847,57.9175)">
                <circle cx="19" cy="12" r="1" style="fill:none;stroke:rgb(58,58,58);stroke-width:2px;"/>
            </g>
            <g transform="matrix(1,0,0,1,86.8847,57.9175)">
                <circle cx="5" cy="12" r="1" style="fill:none;stroke:rgb(58,58,58);stroke-width:2px;"/>
            </g>
        </g>
        <g transform="matrix(1,-2.46519e-32,2.46519e-32,1,76.103,107.845)">
            <g transform="matrix(1,0,0,1,86.8847,57.9175)">
                <ellipse cx="12" cy="5" rx="9" ry="3" style="fill:none;stroke:rgb(58,58,58);stroke-width:2px;"/>
            </g>
            <g transform="matrix(1,0,0,1,86.8847,57.9175)">
                <path d="M3,5L3,19C3,20.646 7.063,22 12,22C16.937,22 21,20.646 21,19L21,5" style="fill:none;fill-rule:nonzero;stroke:rgb(58,58,58);stroke-width:2px;"/>
            </g>
            <g transform="matrix(1,0,0,1,86.8847,57.9175)">
                <path d="M3,12C3,13.646 7.063,15 12,15C16.937,15 21,13.646 21,12" style="fill:none;fill-rule:nonzero;stroke:rgb(58,58,58);stroke-width:2px;"/>
            </g>
        </g>
        <g transform="matrix(1,-2.46519e-32,2.46519e-32,1,131.538,197.493)">
            <path d="M3,20L7.5,20C7.774,20 8,19.774 8,19.5L8,19.218C7.998,19.04 7.905,18.875 7.753,18.781C5.42,17.32 3.999,14.754 3.999,12.001C3.999,7.612 7.611,4.001 11.999,4.001C16.388,4.001 19.999,7.612 19.999,12.001C19.999,14.753 18.579,17.319 16.247,18.78C16.095,18.874 16.002,19.039 16,19.218L16,19.5C16,19.774 16.226,20 16.5,20L21,20" style="fill:none;fill-rule:nonzero;stroke:rgb(58,58,58);stroke-width:2px;"/>
        </g>
        <g transform="matrix(1,-2.46519e-32,2.46519e-32,1,227.054,134.292)">
            <path d="M4,20L20,20C21.097,20 22,19.097 22,18L22,8C22,6.903 21.097,6 20,6L12.07,6C11.402,5.997 10.778,5.658 10.41,5.1L9.59,3.9C9.222,3.342 8.598,3.003 7.93,3L4,3C2.903,3 2,3.903 2,5L2,18C2,19.1 2.9,20 4,20Z" style="fill:none;fill-rule:nonzero;stroke:rgb(58,58,58);stroke-width:2px;"/>
        </g>
        <g transform="matrix(1,-4.93038e-32,4.93038e-32,1,195.394,165.781)">
            <path d="M13.997,4C14.731,4 15.408,4.404 15.757,5.05L16.243,5.95C16.592,6.596 17.269,7 18.003,7L20,7C21.097,7 22,7.903 22,9L22,18C22,19.097 21.097,20 20,20L4,20C2.903,20 2,19.097 2,18L2,9C2,7.903 2.903,7 4,7L5.997,7C6.73,7 7.407,6.597 7.756,5.952L8.245,5.048C8.594,4.403 9.271,4 10.004,4L13.997,4Z" style="fill:none;fill-rule:nonzero;stroke:rgb(58,58,58);stroke-width:2px;"/>
        </g>
        <g transform="matrix(1,-2.46519e-32,2.46519e-32,1,76.0185,139.841)">
            <g transform="matrix(1,0,0,1,86.8847,57.9175)">
                <path d="M19,14L19,6.5C19,4.58 17.42,3 15.5,3C13.58,3 12,4.58 12,6.5L12,17.5C12,19.42 10.42,21 8.5,21C6.58,21 5,19.42 5,17.5L5,10" style="fill:none;fill-rule:nonzero;stroke:rgb(58,58,58);stroke-width:2px;"/>
            </g>
            <g transform="matrix(1,0,0,1,86.8847,57.9175)">
                <path d="M3,5L3,3" style="fill:none;fill-rule:nonzero;stroke:rgb(58,58,58);stroke-width:2px;"/>
            </g>
            <g transform="matrix(1,0,0,1,86.8847,57.9175)">
                <path d="M4,10C2.903,10 2,9.097 2,8L2,6C2,5.451 2.451,5 3,5L7,5C7.549,5 8,5.451 8,6L8,8C8,9.097 7.097,10 6,10L4,10Z" style="fill:none;fill-rule:nonzero;stroke:rgb(58,58,58);stroke-width:2px;"/>
            </g>
            <g transform="matrix(1,0,0,1,86.8847,57.9175)">
                <path d="M7,5L7,3" style="fill:none;fill-rule:nonzero;stroke:rgb(58,58,58);stroke-width:2px;"/>
            </g>
        </g>
        <g transform="matrix(1,-4.93038e-32,4.93038e-32,1,107.51,75.7494)">
            <g transform="matrix(1,0,0,1,86.8847,57.9171)">
                <path d="M14.106,5.553C14.668,5.834 15.332,5.834 15.894,5.553L19.553,3.723C19.692,3.654 19.845,3.618 20,3.618C20.549,3.618 21,4.069 21,4.618C21,4.618 21,4.619 21,4.619L21,17.383C21,17.761 20.785,18.108 20.447,18.277L15.894,20.554C15.332,20.835 14.668,20.835 14.106,20.554L9.894,18.448C9.332,18.167 8.668,18.167 8.106,18.448L4.447,20.278C4.308,20.347 4.155,20.383 4,20.383C3.451,20.383 3,19.932 3,19.383C3,19.383 3,19.382 3,19.381L3,6.618C3,6.24 3.215,5.893 3.553,5.724L8.106,3.447C8.668,3.166 9.332,3.166 9.894,3.447L14.106,5.553Z" style="fill:none;fill-rule:nonzero;stroke:rgb(58,58,58);stroke-width:2px;"/>
            </g>
            <g transform="matrix(1,0,0,1,86.8847,57.9171)">
                <path d="M15,5.764L15,20.764" style="fill:none;fill-rule:nonzero;stroke:rgb(58,58,58);stroke-width:2px;"/>
            </g>
            <g transform="matrix(1,0,0,1,86.8847,57.9171)">
                <path d="M9,3.236L9,18.236" style="fill:none;fill-rule:nonzero;stroke:rgb(58,58,58);stroke-width:2px;"/>
            </g>
        </g>
        <g id="NOTE" transform="matrix(0.914399,-1.1897e-32,1.1897e-32,0.914399,36.5357,8.01641)">
            <g transform="matrix(1,0,0,1,138,138)">
                <path d="M13.4,2L6,2C4.903,2 4,2.903 4,4L4,20C4,21.097 4.903,22 6,22L18,22C19.097,22 20,21.097 20,20L20,12.6" style="fill:none;fill-rule:nonzero;stroke:rgb(234,181,83);stroke-width:2px;"/>
            </g>
            <g>
                <g transform="matrix(1,0,0,1,138,138)">
                    <path d="M2,6L6,6" style="fill:none;fill-rule:nonzero;stroke:rgb(234,181,83);stroke-width:2px;"/>
                </g>
                <g transform="matrix(1,0,0,1,138,138)">
                    <path d="M2,10L6,10" style="fill:none;fill-rule:nonzero;stroke:rgb(234,181,83);stroke-width:2px;"/>
                </g>
                <g transform="matrix(1,0,0,1,138,138)">
                    <path d="M2,14L6,14" style="fill:none;fill-rule:nonzero;stroke:rgb(234,181,83);stroke-width:2px;"/>
                </g>
                <g transform="matrix(1,0,0,1,138,138)">
                    <path d="M2,18L6,18" style="fill:none;fill-rule:nonzero;stroke:rgb(234,181,83);stroke-width:2px;"/>
                </g>
                <g transform="matrix(1,0,0,1,138,138)">
                    <path d="M21.378,5.626C21.776,5.228 22,4.687 22,4.124C22,2.959 21.041,2 19.876,2C19.313,2 18.772,2.224 18.374,2.622L13.364,7.634C13.126,7.872 12.952,8.165 12.858,8.488L12.021,11.358C12.008,11.403 12.001,11.451 12.001,11.498C12.001,11.772 12.227,11.998 12.501,11.998C12.548,11.998 12.596,11.991 12.641,11.978L15.511,11.141C15.834,11.047 16.127,10.873 16.365,10.635L21.378,5.626Z" style="fill:none;fill-rule:nonzero;stroke:rgb(234,181,83);stroke-width:2px;"/>
                </g>
            </g>
        </g>
    </g>
</svg>
